<svg width="124" height="20" viewBox="0 0 124 20" fill="none" xmlns="http://www.w3.org/2000/svg">
<path d="M8.53285 19.1426L11.5579 0.703968H15.1592L12.1341 19.1426H8.53285ZM0.357919 14.9291L0.970138 11.3278H15.8075L15.1952 14.9291H0.357919ZM2.05053 19.1426L5.07561 0.703968H8.6769L5.65182 19.1426H2.05053ZM1.40229 8.51877L2.01451 4.91748H16.8518L16.2396 8.51877H1.40229ZM23.2306 0.703968L27.012 13.7046H27.156L30.9374 0.703968H36.5914L30.5052 19.1426H23.6628L17.5766 0.703968H23.2306ZM40.1364 19.1426H34.7345L40.8207 0.703968H47.6631L53.7493 19.1426H48.3474L44.3139 5.78179H44.1699L40.1364 19.1426ZM39.1281 11.868H49.2837V15.6133H39.1281V11.868ZM71.4789 0.703968V19.1426H67.3014L60.639 9.45511H60.531V19.1426H55.5252V0.703968H59.7747L66.3291 10.3554H66.4731V0.703968H71.4789ZM73.8468 19.1426V0.703968H78.8526V15.1091H86.3072V19.1426H73.8468ZM93.3365 0.703968V19.1426H88.3307V0.703968H93.3365ZM95.7088 19.1426V0.703968H108.673V4.73741H100.715V7.90655H107.881V11.94H100.715V19.1426H95.7088ZM110.515 19.1426V0.703968H123.803V4.73741H115.52V7.90655H123.119V11.94H115.52V15.1091H123.767V19.1426H110.515Z" fill="black"/>
</svg>
